/* XPM */
static char *_66cca5359e64cc8b299048ec50bbfec[] = {
/* columns rows colors chars-per-pixel */
"32 32 116 2 ",
"   c None",
".  c #575A5D",
"X  c #5A5C5F",
"o  c #636668",
"O  c #646668",
"+  c #67696C",
"@  c #6A6C6F",
"#  c #6B6D6F",
"$  c #6D6F70",
"%  c #6D6F71",
"&  c #6D7072",
"*  c #6E7072",
"=  c #6E7073",
"-  c #6F7173",
";  c #717375",
":  c #727375",
">  c #727475",
",  c #737577",
"<  c #737677",
"1  c #737578",
"2  c #747678",
"3  c #757678",
"4  c #757779",
"5  c #767879",
"6  c #76787A",
"7  c #77797B",
"8  c #77797C",
"9  c #78797B",
"0  c #787A7B",
"q  c #787A7C",
"w  c #797B7D",
"e  c #7A7B7D",
"r  c #7A7C7E",
"t  c #7A7C7F",
"y  c #7B7D7F",
"u  c #7C7E7F",
"i  c #7D7E7F",
"p  c #7B7D80",
"a  c #7C7D80",
"s  c #7C7F80",
"d  c #7E8081",
"f  c #7E8082",
"g  c #7F8183",
"h  c #7F8282",
"j  c #818385",
"k  c #828385",
"l  c #828386",
"z  c #828486",
"x  c #838586",
"c  c #838587",
"v  c #848687",
"b  c #848688",
"n  c #87898B",
"m  c #888A8C",
"M  c #898B8C",
"N  c #898B8D",
"B  c #8A8C8D",
"V  c #8A8C8E",
"C  c #8B8D8F",
"Z  c #8C8D8F",
"A  c #8D8E90",
"S  c #8D8F91",
"D  c #8E8F91",
"F  c #8F9091",
"G  c #8E9092",
"H  c #8F9192",
"J  c #8F9193",
"K  c #909294",
"L  c #919294",
"P  c #919395",
"I  c #929496",
"U  c #939597",
"Y  c #949698",
"T  c #959799",
"R  c #969798",
"E  c #97999A",
"W  c #97999B",
"Q  c #98999B",
"!  c #999B9D",
"~  c #9A9C9E",
"^  c #9B9D9F",
"/  c #9D9D9F",
"(  c #9D9FA1",
")  c #9EA0A1",
"_  c #9EA0A2",
"`  c #A0A2A4",
"'  c #A1A3A5",
"]  c #A2A4A5",
"[  c #A3A5A7",
"{  c #A4A6A8",
"}  c #A5A7A9",
"|  c #A6A8AA",
" . c #A9ABAC",
".. c #A9ABAD",
"X. c #AAACAD",
"o. c #AAACAE",
"O. c #ABADAF",
"+. c #ACAEB0",
"@. c #AEAFB1",
"#. c #B0B1B2",
"$. c #B7B8B8",
"%. c #B8B8BB",
"&. c #BBBCBD",
"*. c #C4C4C5",
"=. c #C5C6C7",
"-. c #C6C6C6",
";. c #C8C9CA",
":. c #CBCDCE",
">. c #CCCDCE",
",. c #CECECF",
"<. c #D2D3D4",
"1. c #D5D5D6",
"2. c #DBDBDC",
"3. c #E1E1E2",
"4. c #E2E2E2",
"5. c #E5E6E6",
/* pixels */
"                                                                ",
"                                            +                   ",
"                                        r ) #. .B               ",
"                                    O @.5.2.:.<.5.>.7           ",
"                                  o *.4.L #     p ;.3.a         ",
"                                X &.1.:           . $.>.%       ",
"                                @.,.,               @ =.E       ",
"                              ] -.9                   ( X.      ",
"                          $ P %.u                     F | =     ",
"                          <                           H / *     ",
"                                                    & Q V       ",
"                      > g B A Z b 4                 j R 3       ",
"                    6 m C v h k M Z s             q D i         ",
"                  5 l d ;       - e x w         5 z t           ",
"                2 0 6               2 8 2     2 7 6             ",
"              2 2 , ,               , , 2   2 2 1 ,             ",
"            2 2 2 2   2 2                 2 2 2 2               ",
"          2 2 2 2     2 2               2 2 2 2                 ",
"        2 2 2 2       2 2 ,           , 2 2 2                   ",
"        , , 2           4 4 4 4 2 2 4 4 4 4                     ",
"      7 q w               y y y y y y r w                       ",
"    f f f                     f g g                             ",
"    c b j                                                       ",
"  m N N m                     n m N                             ",
"    G J G                   S K J                               ",
"    U T I                 I Y T                                 ",
"      ^ ! W             W ~ ~                                   ",
"      ( ' ` (         _ ` `                                     ",
"        { | } { [ [ { | }                                       ",
"          ..o.O.O.O.O.o.                                        ",
"                +.+.                                            ",
"                                                                "
};
