/* XPM */
static char *d458673b487d487687f3e459f4dbec54[] = {
/* columns rows colors chars-per-pixel */
"64 64 49 1 ",
"  c None",
". c #5F6164",
"X c #616366",
"o c #646669",
"O c #67696C",
"+ c #696C6E",
"@ c #6D6F71",
"# c #6E7073",
"$ c #727476",
"% c #747678",
"& c #77797B",
"* c #7A7C7E",
"= c #7D7F81",
"- c #7F8183",
"; c #818385",
": c #858789",
"> c #86898A",
", c #8A8B8D",
"< c #8D8E91",
"1 c #8E9092",
"2 c #919395",
"3 c #959699",
"4 c #96989A",
"5 c #9A9C9E",
"6 c #9D9EA0",
"7 c #9EA0A2",
"8 c #A2A4A6",
"9 c #A5A6A8",
"0 c #A6A8AA",
"q c #AAACAD",
"w c #ADAFB0",
"e c #AFB1B2",
"r c #B2B4B5",
"t c #B6B7B8",
"y c #B8B7B9",
"u c #B7B8B9",
"i c #BBBCBD",
"p c #BEBFC0",
"a c #BFC0C1",
"s c #C3C3C4",
"d c #C6C7C8",
"f c #C7C8C9",
"g c #CACBCC",
"h c #CFCFD0",
"j c #CFD0D1",
"k c #D3D3D4",
"l c #D6D7D9",
"z c #D7D8D9",
"x c #D9DADB",
/* pixels */
"                                                                ",
"                                                                ",
"                                                                ",
"                                            @+@                 ",
"                                         oo$%*%#o               ",
"                                       X$3ridgfiq1OX            ",
"                                     o@8hzxzzzzxxld2X           ",
"                                    X&dlhhfsyrysgkhzr+          ",
"                                   X:hggs5*+++O#;0fdkd$+        ",
"                                  X=gsgr$X       X;sdfu+        ",
"                                 o*faf8X          X+yafqX       ",
"                                O&iis8X            o$uud;+      ",
"                                #uua0o              o:ii9+      ",
"                               $wuu0O                O9ut*      ",
"                              +0tr0+                 +,tt>      ",
"                             +7rq0$                   *qr2+     ",
"                            +5e00$+                   *8w3#     ",
"                           #2q89*+                    %603#     ",
"                          %%-%&%@                     *581#     ",
"                         %%                           *77,#     ",
"                                                     @:55-      ",
"                           #$#$#                     $232%      ",
"                        $%=;:>:;=%#                 @;22;#      ",
"                      $&:,1<2<111>;$$              #&2<<%       ",
"                    $$-,,,>,>>>>>,,,*$            $%,,,*$       ",
"                   $%;>::;**%%%*=:;>,=$          $%::>=$        ",
"                   $-;;-&$$     $$*-;;*$        $%;;;*$         ",
"                  %=-**%$         $&**=*$       %*==&$          ",
"                 %*&&*$%           $&&&*%      %&*%*%           ",
"                %&%%%$%             $&&$%%    %%&%%$            ",
"               %$%%%%%               %$&%%   %%%%%%%            ",
"              %%%%%%%                %%$%   %%%%%%%             ",
"             %%%%%%%   %%             &$   %%%%%%%              ",
"            %%%%%%%   %%%%                %%%%%%%               ",
"           %%%%%%%   %%%%%               %%%%$%%                ",
"          %%%%%%%    %%%%%%             %%%%%%%                 ",
"         %%%%%%%      %%%%%%           %%%%%%%                  ",
"        %%%%%%%       %%%%%%%         %%%%%%%                   ",
"       %%%%%%%         %%%%%%%%%   $$&%%%%%%                    ",
"       %%$%%%           %%&&&&&%&&%&&&&&&&%                     ",
"      &&&&&&             &==&=**********&&                      ",
"      *&****              &=&======-==**=                       ",
"     =-==-=                 ====---====                         ",
"     --;--                      ===                             ",
"    ;;;;;;                                                      ",
"    :::>:                      :    ::                          ",
"   >>>>>>                     >>>>>>>                           ",
"   <,<,<,                    >,<,<><                            ",
"   <<<11<                   <<<11<<                             ",
"    11121                  1111111                              ",
"    132322                2233332                               ",
"     34443               3344333                                ",
"     445544             4444464                                 ",
"      565555            566664                                  ",
"      6677766         7666776                                   ",
"       78888777     77778887                                    ",
"        8899998887979999998                                     ",
"         99q09000900090099                                      ",
"          000wqwqqqqw0w00                                       ",
"            00qqwqww0q0q                                        ",
"              wwwqwqw                                           ",
"                 w                                              ",
"                                                                ",
"                                                                "
};
