/* XPM */
static char *_0735bfa3219406d82986395355a0093[] = {
/* columns rows colors chars-per-pixel */
"16 16 49 1 ",
"  c None",
". c #727476",
"X c #737577",
"o c #747678",
"O c #757779",
"+ c #76787A",
"@ c #77787A",
"# c #76797B",
"$ c #77797B",
"% c #787A7B",
"& c #7A7C7E",
"* c #7B7D7E",
"= c #7B7D7F",
"- c #7C7E7F",
"; c #7C7D80",
": c #7C7E80",
"> c #7D7F81",
", c #7F8082",
"< c #7F8183",
"1 c #818284",
"2 c #818384",
"3 c #838586",
"4 c #848586",
"5 c #848587",
"6 c #86888A",
"7 c #87898B",
"8 c #8A8C8E",
"9 c #8C8E90",
"0 c #909193",
"q c #909294",
"w c #919395",
"e c #929496",
"r c #97999B",
"t c #98999B",
"y c #9B9D9F",
"u c #9C9EA0",
"i c #9D9FA1",
"p c #9EA0A2",
"a c #A6A7A9",
"s c #A7A9AB",
"d c #A8AAAC",
"f c #A9ABAD",
"g c #AEB0B2",
"h c #B2B3B5",
"j c #B8B9BB",
"k c #BBBBBC",
"l c #BABCBD",
"z c #BEBEC0",
"x c #C8C8C9",
/* pixels */
"           9    ",
"          zlh   ",
"        5x  aj  ",
"       4k    rt ",
"       0     1e ",
"      2*     8; ",
"     ,<-3&  :,  ",
"    +@   % o#   ",
"   oXXo   oo    ",
"  .o  oo XO     ",
" =$    :>:      ",
"67      7       ",
" w     eq       ",
" yp   iu        ",
"  ddsf          ",
"    g           "
};
